{
    "asset" : {
        "generator" : "Khronos glTF Blender I/O v1.6.16",
        "version" : "2.0"
    },
    "scene" : 0,
    "scenes" : [
        {
            "extras" : {
                "b_settings" : 1,
                "b_vr_controllers" : 0,
                "b_renderer" : 0,
                "b_aa" : 1,
                "b_colorManagement" : 1,
                "b_physicallyCorrectLights" : 1,
                "b_player" : 0,
                "b_interactive" : 0,
                "b_bake_lightmap" : 0,
                "b_export" : 1,
                "s_project_name" : "Model-viewer_test",
                "s_output" : "exporting...",
                "jiggle_rate" : 1
            },
            "name" : "Scene",
            "nodes" : [
                0
            ]
        }
    ],
    "nodes" : [
        {
            "mesh" : 0,
            "name" : "Cilindro"
        }
    ],
    "materials" : [
        {
            "doubleSided" : true,
            "name" : "mat_cilindro_verde",
            "pbrMetallicRoughness" : {
                "baseColorFactor" : [
                    0.023524945601820946,
                    0.8000000715255737,
                    0.10120294988155365,
                    1
                ],
                "metallicFactor" : 0,
                "roughnessFactor" : 0.5
            }
        }
    ],
    "meshes" : [
        {
            "name" : "Cilindro",
            "primitives" : [
                {
                    "attributes" : {
                        "POSITION" : 0,
                        "NORMAL" : 1,
                        "TEXCOORD_0" : 2
                    },
                    "indices" : 3,
                    "material" : 0
                }
            ]
        }
    ],
    "accessors" : [
        {
            "bufferView" : 0,
            "componentType" : 5126,
            "count" : 130,
            "max" : [
                1.3058520555496216,
                2.726494312286377,
                1.3058521747589111
            ],
            "min" : [
                -1.3058522939682007,
                -2.726494789123535,
                -1.3058521747589111
            ],
            "type" : "VEC3"
        },
        {
            "bufferView" : 1,
            "componentType" : 5126,
            "count" : 130,
            "type" : "VEC3"
        },
        {
            "bufferView" : 2,
            "componentType" : 5126,
            "count" : 130,
            "type" : "VEC2"
        },
        {
            "bufferView" : 3,
            "componentType" : 5123,
            "count" : 372,
            "type" : "SCALAR"
        }
    ],
    "bufferViews" : [
        {
            "buffer" : 0,
            "byteLength" : 1560,
            "byteOffset" : 0
        },
        {
            "buffer" : 0,
            "byteLength" : 1560,
            "byteOffset" : 1560
        },
        {
            "buffer" : 0,
            "byteLength" : 1040,
            "byteOffset" : 3120
        },
        {
            "buffer" : 0,
            "byteLength" : 744,
            "byteOffset" : 4160
        }
    ],
    "buffers" : [
        {
            "byteLength" : 4904,
            "uri" : "data:application/octet-stream;base64,"
        }
    ]
}
